<mxfile host="65bd71144e">
    <diagram id="EIwWNi0Rns-KdU61ulC4" name="clickOnMap">
        <mxGraphModel dx="754" dy="674" grid="0" gridSize="10" guides="1" tooltips="1" connect="1" arrows="1" fold="1" page="0" pageScale="1" pageWidth="827" pageHeight="1169" math="0" shadow="0">
            <root>
                <mxCell id="0"/>
                <mxCell id="1" parent="0"/>
                <mxCell id="WbzeLadHwOqL8LsVdnn9-3" value="clickOnMap" style="points=[[0.145,0.145,0],[0.5,0,0],[0.855,0.145,0],[1,0.5,0],[0.855,0.855,0],[0.5,1,0],[0.145,0.855,0],[0,0.5,0]];shape=mxgraph.bpmn.event;html=1;verticalLabelPosition=bottom;labelBackgroundColor=#ffffff;verticalAlign=top;align=center;perimeter=ellipsePerimeter;outlineConnect=0;aspect=fixed;outline=standard;symbol=general;" parent="1" vertex="1">
                    <mxGeometry x="60" y="350" width="50" height="50" as="geometry"/>
                </mxCell>
                <mxCell id="WbzeLadHwOqL8LsVdnn9-18" style="edgeStyle=orthogonalEdgeStyle;rounded=0;orthogonalLoop=1;jettySize=auto;html=1;exitX=0.5;exitY=0;exitDx=0;exitDy=0;exitPerimeter=0;dashed=1;" parent="1" source="WbzeLadHwOqL8LsVdnn9-4" target="WbzeLadHwOqL8LsVdnn9-12" edge="1">
                    <mxGeometry relative="1" as="geometry"/>
                </mxCell>
                <mxCell id="WbzeLadHwOqL8LsVdnn9-51" style="edgeStyle=orthogonalEdgeStyle;rounded=0;orthogonalLoop=1;jettySize=auto;html=1;exitX=0.75;exitY=0;exitDx=0;exitDy=0;exitPerimeter=0;dashed=1;" parent="1" source="WbzeLadHwOqL8LsVdnn9-4" target="WbzeLadHwOqL8LsVdnn9-45" edge="1">
                    <mxGeometry relative="1" as="geometry"/>
                </mxCell>
                <mxCell id="WbzeLadHwOqL8LsVdnn9-4" value="addNode&lt;div&gt;// Knoten erstellen und in nodes[] pushen&lt;/div&gt;" style="points=[[0.25,0,0],[0.5,0,0],[0.75,0,0],[1,0.25,0],[1,0.5,0],[1,0.75,0],[0.75,1,0],[0.5,1,0],[0.25,1,0],[0,0.75,0],[0,0.5,0],[0,0.25,0]];shape=mxgraph.bpmn.task;whiteSpace=wrap;rectStyle=rounded;size=10;html=1;container=1;expand=0;collapsible=0;taskMarker=abstract;" parent="1" vertex="1">
                    <mxGeometry x="360" y="335" width="120" height="80" as="geometry"/>
                </mxCell>
                <mxCell id="WbzeLadHwOqL8LsVdnn9-10" style="edgeStyle=orthogonalEdgeStyle;rounded=0;orthogonalLoop=1;jettySize=auto;html=1;exitX=1;exitY=0.5;exitDx=0;exitDy=0;exitPerimeter=0;" parent="1" source="WbzeLadHwOqL8LsVdnn9-5" target="WbzeLadHwOqL8LsVdnn9-4" edge="1">
                    <mxGeometry relative="1" as="geometry"/>
                </mxCell>
                <mxCell id="WbzeLadHwOqL8LsVdnn9-11" value="Yes" style="edgeLabel;html=1;align=center;verticalAlign=middle;resizable=0;points=[];" parent="WbzeLadHwOqL8LsVdnn9-10" vertex="1" connectable="0">
                    <mxGeometry x="-0.1567" y="-1" relative="1" as="geometry">
                        <mxPoint as="offset"/>
                    </mxGeometry>
                </mxCell>
                <mxCell id="WbzeLadHwOqL8LsVdnn9-5" value="checkGraphToggle" style="points=[[0.25,0.25,0],[0.5,0,0],[0.75,0.25,0],[1,0.5,0],[0.75,0.75,0],[0.5,1,0],[0.25,0.75,0],[0,0.5,0]];shape=mxgraph.bpmn.gateway2;html=1;verticalLabelPosition=bottom;labelBackgroundColor=#ffffff;verticalAlign=top;align=center;perimeter=rhombusPerimeter;outlineConnect=0;outline=none;symbol=none;" parent="1" vertex="1">
                    <mxGeometry x="210" y="350" width="50" height="50" as="geometry"/>
                </mxCell>
                <mxCell id="WbzeLadHwOqL8LsVdnn9-6" style="edgeStyle=orthogonalEdgeStyle;rounded=0;orthogonalLoop=1;jettySize=auto;html=1;exitX=1;exitY=0.5;exitDx=0;exitDy=0;exitPerimeter=0;entryX=0;entryY=0.5;entryDx=0;entryDy=0;entryPerimeter=0;" parent="1" source="WbzeLadHwOqL8LsVdnn9-3" target="WbzeLadHwOqL8LsVdnn9-5" edge="1">
                    <mxGeometry relative="1" as="geometry"/>
                </mxCell>
                <mxCell id="WbzeLadHwOqL8LsVdnn9-7" value="End" style="points=[[0.145,0.145,0],[0.5,0,0],[0.855,0.145,0],[1,0.5,0],[0.855,0.855,0],[0.5,1,0],[0.145,0.855,0],[0,0.5,0]];shape=mxgraph.bpmn.event;html=1;verticalLabelPosition=bottom;labelBackgroundColor=#ffffff;verticalAlign=top;align=center;perimeter=ellipsePerimeter;outlineConnect=0;aspect=fixed;outline=end;symbol=terminate2;" parent="1" vertex="1">
                    <mxGeometry x="210" y="545" width="50" height="50" as="geometry"/>
                </mxCell>
                <mxCell id="WbzeLadHwOqL8LsVdnn9-8" style="edgeStyle=orthogonalEdgeStyle;rounded=0;orthogonalLoop=1;jettySize=auto;html=1;exitX=0.5;exitY=1;exitDx=0;exitDy=0;exitPerimeter=0;entryX=0.5;entryY=0;entryDx=0;entryDy=0;entryPerimeter=0;" parent="1" source="WbzeLadHwOqL8LsVdnn9-5" target="WbzeLadHwOqL8LsVdnn9-7" edge="1">
                    <mxGeometry relative="1" as="geometry"/>
                </mxCell>
                <mxCell id="WbzeLadHwOqL8LsVdnn9-9" value="No" style="edgeLabel;html=1;align=center;verticalAlign=middle;resizable=0;points=[];" parent="WbzeLadHwOqL8LsVdnn9-8" vertex="1" connectable="0">
                    <mxGeometry x="-0.6615" relative="1" as="geometry">
                        <mxPoint y="55" as="offset"/>
                    </mxGeometry>
                </mxCell>
                <mxCell id="WbzeLadHwOqL8LsVdnn9-12" value="&lt;b&gt;Node // Knoten&lt;/b&gt;" style="swimlane;fontStyle=0;childLayout=stackLayout;horizontal=1;startSize=26;fillColor=none;horizontalStack=0;resizeParent=1;resizeParentMax=0;resizeLast=0;collapsible=1;marginBottom=0;whiteSpace=wrap;html=1;" parent="1" vertex="1">
                    <mxGeometry x="335" y="60" width="170" height="104" as="geometry"/>
                </mxCell>
                <mxCell id="WbzeLadHwOqL8LsVdnn9-13" value="+ yx: LatLng // yx-Koordinaten" style="text;strokeColor=none;fillColor=none;align=left;verticalAlign=top;spacingLeft=4;spacingRight=4;overflow=hidden;rotatable=0;points=[[0,0.5],[1,0.5]];portConstraint=eastwest;whiteSpace=wrap;html=1;" parent="WbzeLadHwOqL8LsVdnn9-12" vertex="1">
                    <mxGeometry y="26" width="170" height="26" as="geometry"/>
                </mxCell>
                <mxCell id="WbzeLadHwOqL8LsVdnn9-14" value="+ links[]: Integers" style="text;strokeColor=none;fillColor=none;align=left;verticalAlign=top;spacingLeft=4;spacingRight=4;overflow=hidden;rotatable=0;points=[[0,0.5],[1,0.5]];portConstraint=eastwest;whiteSpace=wrap;html=1;" parent="WbzeLadHwOqL8LsVdnn9-12" vertex="1">
                    <mxGeometry y="52" width="170" height="26" as="geometry"/>
                </mxCell>
                <mxCell id="WbzeLadHwOqL8LsVdnn9-15" value="+ index: Integer" style="text;strokeColor=none;fillColor=none;align=left;verticalAlign=top;spacingLeft=4;spacingRight=4;overflow=hidden;rotatable=0;points=[[0,0.5],[1,0.5]];portConstraint=eastwest;whiteSpace=wrap;html=1;" parent="WbzeLadHwOqL8LsVdnn9-12" vertex="1">
                    <mxGeometry y="78" width="170" height="26" as="geometry"/>
                </mxCell>
                <mxCell id="WbzeLadHwOqL8LsVdnn9-17" style="edgeStyle=orthogonalEdgeStyle;rounded=0;orthogonalLoop=1;jettySize=auto;html=1;exitX=1;exitY=0.5;exitDx=0;exitDy=0;exitPerimeter=0;entryX=0;entryY=0.5;entryDx=0;entryDy=0;entryPerimeter=0;" parent="1" source="WbzeLadHwOqL8LsVdnn9-4" target="WbzeLadHwOqL8LsVdnn9-19" edge="1">
                    <mxGeometry relative="1" as="geometry">
                        <mxPoint x="550" y="375" as="targetPoint"/>
                    </mxGeometry>
                </mxCell>
                <mxCell id="WbzeLadHwOqL8LsVdnn9-19" value="checkAB" style="points=[[0.25,0.25,0],[0.5,0,0],[0.75,0.25,0],[1,0.5,0],[0.75,0.75,0],[0.5,1,0],[0.25,0.75,0],[0,0.5,0]];shape=mxgraph.bpmn.gateway2;html=1;verticalLabelPosition=bottom;labelBackgroundColor=#ffffff;verticalAlign=top;align=center;perimeter=rhombusPerimeter;outlineConnect=0;outline=none;symbol=none;" parent="1" vertex="1">
                    <mxGeometry x="550" y="350" width="50" height="50" as="geometry"/>
                </mxCell>
                <mxCell id="WbzeLadHwOqL8LsVdnn9-20" value="nodeB zuweisen" style="points=[[0.25,0,0],[0.5,0,0],[0.75,0,0],[1,0.25,0],[1,0.5,0],[1,0.75,0],[0.75,1,0],[0.5,1,0],[0.25,1,0],[0,0.75,0],[0,0.5,0],[0,0.25,0]];shape=mxgraph.bpmn.task;whiteSpace=wrap;rectStyle=rounded;size=10;html=1;container=1;expand=0;collapsible=0;taskMarker=abstract;" parent="1" vertex="1">
                    <mxGeometry x="720" y="335" width="120" height="80" as="geometry"/>
                </mxCell>
                <mxCell id="WbzeLadHwOqL8LsVdnn9-23" value="nodeA zuweisen" style="points=[[0.25,0,0],[0.5,0,0],[0.75,0,0],[1,0.25,0],[1,0.5,0],[1,0.75,0],[0.75,1,0],[0.5,1,0],[0.25,1,0],[0,0.75,0],[0,0.5,0],[0,0.25,0]];shape=mxgraph.bpmn.task;whiteSpace=wrap;rectStyle=rounded;size=10;html=1;container=1;expand=0;collapsible=0;taskMarker=abstract;" parent="1" vertex="1">
                    <mxGeometry x="515" y="530" width="120" height="80" as="geometry"/>
                </mxCell>
                <mxCell id="WbzeLadHwOqL8LsVdnn9-26" style="edgeStyle=orthogonalEdgeStyle;rounded=0;orthogonalLoop=1;jettySize=auto;html=1;exitX=0.5;exitY=1;exitDx=0;exitDy=0;exitPerimeter=0;entryX=0.5;entryY=0;entryDx=0;entryDy=0;entryPerimeter=0;" parent="1" source="WbzeLadHwOqL8LsVdnn9-19" target="WbzeLadHwOqL8LsVdnn9-23" edge="1">
                    <mxGeometry relative="1" as="geometry"/>
                </mxCell>
                <mxCell id="WbzeLadHwOqL8LsVdnn9-27" value="nodeA == null&lt;div&gt;// Anfang&lt;/div&gt;" style="edgeLabel;html=1;align=center;verticalAlign=middle;resizable=0;points=[];" parent="WbzeLadHwOqL8LsVdnn9-26" vertex="1" connectable="0">
                    <mxGeometry x="0.1807" y="-1" relative="1" as="geometry">
                        <mxPoint as="offset"/>
                    </mxGeometry>
                </mxCell>
                <mxCell id="WbzeLadHwOqL8LsVdnn9-28" style="edgeStyle=orthogonalEdgeStyle;rounded=0;orthogonalLoop=1;jettySize=auto;html=1;exitX=0;exitY=0.5;exitDx=0;exitDy=0;exitPerimeter=0;entryX=1;entryY=0.5;entryDx=0;entryDy=0;entryPerimeter=0;" parent="1" source="WbzeLadHwOqL8LsVdnn9-23" target="WbzeLadHwOqL8LsVdnn9-7" edge="1">
                    <mxGeometry relative="1" as="geometry"/>
                </mxCell>
                <mxCell id="WbzeLadHwOqL8LsVdnn9-29" style="edgeStyle=orthogonalEdgeStyle;rounded=0;orthogonalLoop=1;jettySize=auto;html=1;exitX=1;exitY=0.5;exitDx=0;exitDy=0;exitPerimeter=0;entryX=0;entryY=0.5;entryDx=0;entryDy=0;entryPerimeter=0;" parent="1" source="WbzeLadHwOqL8LsVdnn9-19" target="WbzeLadHwOqL8LsVdnn9-20" edge="1">
                    <mxGeometry relative="1" as="geometry"/>
                </mxCell>
                <mxCell id="WbzeLadHwOqL8LsVdnn9-30" value="nodeA != null&lt;div&gt;// Ende&lt;/div&gt;" style="edgeLabel;html=1;align=center;verticalAlign=middle;resizable=0;points=[];" parent="WbzeLadHwOqL8LsVdnn9-29" vertex="1" connectable="0">
                    <mxGeometry x="-0.2694" y="1" relative="1" as="geometry">
                        <mxPoint as="offset"/>
                    </mxGeometry>
                </mxCell>
                <mxCell id="WbzeLadHwOqL8LsVdnn9-44" style="edgeStyle=orthogonalEdgeStyle;rounded=0;orthogonalLoop=1;jettySize=auto;html=1;exitX=0.5;exitY=0;exitDx=0;exitDy=0;exitPerimeter=0;dashed=1;" parent="1" source="WbzeLadHwOqL8LsVdnn9-31" target="WbzeLadHwOqL8LsVdnn9-40" edge="1">
                    <mxGeometry relative="1" as="geometry"/>
                </mxCell>
                <mxCell id="WbzeLadHwOqL8LsVdnn9-31" value="addEdge&lt;div&gt;// node.index jeweils in andere node.links pushen&lt;/div&gt;" style="points=[[0.25,0,0],[0.5,0,0],[0.75,0,0],[1,0.25,0],[1,0.5,0],[1,0.75,0],[0.75,1,0],[0.5,1,0],[0.25,1,0],[0,0.75,0],[0,0.5,0],[0,0.25,0]];shape=mxgraph.bpmn.task;whiteSpace=wrap;rectStyle=rounded;size=10;html=1;container=1;expand=0;collapsible=0;taskMarker=abstract;" parent="1" vertex="1">
                    <mxGeometry x="910" y="335" width="120" height="80" as="geometry"/>
                </mxCell>
                <mxCell id="WbzeLadHwOqL8LsVdnn9-32" style="edgeStyle=orthogonalEdgeStyle;rounded=0;orthogonalLoop=1;jettySize=auto;html=1;exitX=1;exitY=0.5;exitDx=0;exitDy=0;exitPerimeter=0;entryX=0;entryY=0.5;entryDx=0;entryDy=0;entryPerimeter=0;" parent="1" source="WbzeLadHwOqL8LsVdnn9-20" target="WbzeLadHwOqL8LsVdnn9-31" edge="1">
                    <mxGeometry relative="1" as="geometry"/>
                </mxCell>
                <mxCell id="WbzeLadHwOqL8LsVdnn9-33" value="nodeA auf null setzen" style="points=[[0.25,0,0],[0.5,0,0],[0.75,0,0],[1,0.25,0],[1,0.5,0],[1,0.75,0],[0.75,1,0],[0.5,1,0],[0.25,1,0],[0,0.75,0],[0,0.5,0],[0,0.25,0]];shape=mxgraph.bpmn.task;whiteSpace=wrap;rectStyle=rounded;size=10;html=1;container=1;expand=0;collapsible=0;taskMarker=abstract;" parent="1" vertex="1">
                    <mxGeometry x="1110" y="335" width="120" height="80" as="geometry"/>
                </mxCell>
                <mxCell id="WbzeLadHwOqL8LsVdnn9-34" style="edgeStyle=orthogonalEdgeStyle;rounded=0;orthogonalLoop=1;jettySize=auto;html=1;exitX=1;exitY=0.5;exitDx=0;exitDy=0;exitPerimeter=0;entryX=0;entryY=0.5;entryDx=0;entryDy=0;entryPerimeter=0;" parent="1" source="WbzeLadHwOqL8LsVdnn9-31" target="WbzeLadHwOqL8LsVdnn9-33" edge="1">
                    <mxGeometry relative="1" as="geometry"/>
                </mxCell>
                <mxCell id="WbzeLadHwOqL8LsVdnn9-35" style="edgeStyle=orthogonalEdgeStyle;rounded=0;orthogonalLoop=1;jettySize=auto;html=1;exitX=0.5;exitY=1;exitDx=0;exitDy=0;exitPerimeter=0;entryX=0.5;entryY=1;entryDx=0;entryDy=0;entryPerimeter=0;" parent="1" source="WbzeLadHwOqL8LsVdnn9-33" target="WbzeLadHwOqL8LsVdnn9-7" edge="1">
                    <mxGeometry relative="1" as="geometry"/>
                </mxCell>
                <mxCell id="WbzeLadHwOqL8LsVdnn9-40" value="L.polyline // Edge Line" style="swimlane;fontStyle=1;align=center;verticalAlign=top;childLayout=stackLayout;horizontal=1;startSize=26;horizontalStack=0;resizeParent=1;resizeParentMax=0;resizeLast=0;collapsible=1;marginBottom=0;whiteSpace=wrap;html=1;" parent="1" vertex="1">
                    <mxGeometry x="890" y="60" width="160" height="138" as="geometry"/>
                </mxCell>
                <mxCell id="WbzeLadHwOqL8LsVdnn9-50" value="+ latlng[]: LatLngs" style="text;strokeColor=none;fillColor=none;align=left;verticalAlign=top;spacingLeft=4;spacingRight=4;overflow=hidden;rotatable=0;points=[[0,0.5],[1,0.5]];portConstraint=eastwest;whiteSpace=wrap;html=1;" parent="WbzeLadHwOqL8LsVdnn9-40" vertex="1">
                    <mxGeometry y="26" width="160" height="26" as="geometry"/>
                </mxCell>
                <mxCell id="WbzeLadHwOqL8LsVdnn9-37" value="+ nodeA: Node" style="text;strokeColor=none;fillColor=none;align=left;verticalAlign=top;spacingLeft=4;spacingRight=4;overflow=hidden;rotatable=0;points=[[0,0.5],[1,0.5]];portConstraint=eastwest;whiteSpace=wrap;html=1;" parent="WbzeLadHwOqL8LsVdnn9-40" vertex="1">
                    <mxGeometry y="52" width="160" height="26" as="geometry"/>
                </mxCell>
                <mxCell id="WbzeLadHwOqL8LsVdnn9-38" value="+ nodeB: Node" style="text;strokeColor=none;fillColor=none;align=left;verticalAlign=top;spacingLeft=4;spacingRight=4;overflow=hidden;rotatable=0;points=[[0,0.5],[1,0.5]];portConstraint=eastwest;whiteSpace=wrap;html=1;" parent="WbzeLadHwOqL8LsVdnn9-40" vertex="1">
                    <mxGeometry y="78" width="160" height="26" as="geometry"/>
                </mxCell>
                <mxCell id="WbzeLadHwOqL8LsVdnn9-42" value="" style="line;strokeWidth=1;fillColor=none;align=left;verticalAlign=middle;spacingTop=-1;spacingLeft=3;spacingRight=3;rotatable=0;labelPosition=right;points=[];portConstraint=eastwest;strokeColor=inherit;" parent="WbzeLadHwOqL8LsVdnn9-40" vertex="1">
                    <mxGeometry y="104" width="160" height="8" as="geometry"/>
                </mxCell>
                <mxCell id="WbzeLadHwOqL8LsVdnn9-43" value="+ clickOnEdge(e)" style="text;strokeColor=none;fillColor=none;align=left;verticalAlign=top;spacingLeft=4;spacingRight=4;overflow=hidden;rotatable=0;points=[[0,0.5],[1,0.5]];portConstraint=eastwest;whiteSpace=wrap;html=1;" parent="WbzeLadHwOqL8LsVdnn9-40" vertex="1">
                    <mxGeometry y="112" width="160" height="26" as="geometry"/>
                </mxCell>
                <mxCell id="WbzeLadHwOqL8LsVdnn9-45" value="L.marker // Node Marker" style="swimlane;fontStyle=1;align=center;verticalAlign=top;childLayout=stackLayout;horizontal=1;startSize=26;horizontalStack=0;resizeParent=1;resizeParentMax=0;resizeLast=0;collapsible=1;marginBottom=0;whiteSpace=wrap;html=1;" parent="1" vertex="1">
                    <mxGeometry x="540" y="60" width="160" height="112" as="geometry"/>
                </mxCell>
                <mxCell id="WbzeLadHwOqL8LsVdnn9-49" value="+ latlng: LatLng" style="text;strokeColor=none;fillColor=none;align=left;verticalAlign=top;spacingLeft=4;spacingRight=4;overflow=hidden;rotatable=0;points=[[0,0.5],[1,0.5]];portConstraint=eastwest;whiteSpace=wrap;html=1;" parent="WbzeLadHwOqL8LsVdnn9-45" vertex="1">
                    <mxGeometry y="26" width="160" height="26" as="geometry"/>
                </mxCell>
                <mxCell id="WbzeLadHwOqL8LsVdnn9-46" value="+ index: Integer" style="text;strokeColor=none;fillColor=none;align=left;verticalAlign=top;spacingLeft=4;spacingRight=4;overflow=hidden;rotatable=0;points=[[0,0.5],[1,0.5]];portConstraint=eastwest;whiteSpace=wrap;html=1;" parent="WbzeLadHwOqL8LsVdnn9-45" vertex="1">
                    <mxGeometry y="52" width="160" height="26" as="geometry"/>
                </mxCell>
                <mxCell id="WbzeLadHwOqL8LsVdnn9-47" value="" style="line;strokeWidth=1;fillColor=none;align=left;verticalAlign=middle;spacingTop=-1;spacingLeft=3;spacingRight=3;rotatable=0;labelPosition=right;points=[];portConstraint=eastwest;strokeColor=inherit;" parent="WbzeLadHwOqL8LsVdnn9-45" vertex="1">
                    <mxGeometry y="78" width="160" height="8" as="geometry"/>
                </mxCell>
                <mxCell id="WbzeLadHwOqL8LsVdnn9-48" value="+ clickOnNode(e)" style="text;strokeColor=none;fillColor=none;align=left;verticalAlign=top;spacingLeft=4;spacingRight=4;overflow=hidden;rotatable=0;points=[[0,0.5],[1,0.5]];portConstraint=eastwest;whiteSpace=wrap;html=1;" parent="WbzeLadHwOqL8LsVdnn9-45" vertex="1">
                    <mxGeometry y="86" width="160" height="26" as="geometry"/>
                </mxCell>
            </root>
        </mxGraphModel>
    </diagram>
    <diagram id="jrNGx-gabtCFgvl1K_JJ" name="Klassendiagramm">
        <mxGraphModel dx="1560" dy="1837" grid="0" gridSize="10" guides="1" tooltips="1" connect="1" arrows="1" fold="1" page="0" pageScale="1" pageWidth="850" pageHeight="1100" math="0" shadow="0">
            <root>
                <mxCell id="0"/>
                <mxCell id="1" parent="0"/>
                <mxCell id="47bcrhxyphqd8BRHlcOZ-18" value="Leaflet" style="shape=umlFrame;whiteSpace=wrap;html=1;movable=1;resizable=1;rotatable=1;deletable=1;editable=1;connectable=1;" vertex="1" parent="1">
                    <mxGeometry x="-158" y="-547" width="1109" height="776" as="geometry"/>
                </mxCell>
                <mxCell id="-IxNRpvLPGeOnTa2XRwh-1" value="Node // Knoten" style="swimlane;fontStyle=1;align=center;verticalAlign=top;childLayout=stackLayout;horizontal=1;startSize=26;horizontalStack=0;resizeParent=1;resizeParentMax=0;resizeLast=0;collapsible=1;marginBottom=0;" vertex="1" parent="1">
                    <mxGeometry x="-367" y="-133" width="160" height="112" as="geometry"/>
                </mxCell>
                <mxCell id="79ByzgNNwlD58r3_2kEv-2" value="+ links[]: Integers" style="text;strokeColor=none;fillColor=none;align=left;verticalAlign=top;spacingLeft=4;spacingRight=4;overflow=hidden;rotatable=0;points=[[0,0.5],[1,0.5]];portConstraint=eastwest;" vertex="1" parent="-IxNRpvLPGeOnTa2XRwh-1">
                    <mxGeometry y="26" width="160" height="26" as="geometry"/>
                </mxCell>
                <mxCell id="47bcrhxyphqd8BRHlcOZ-35" value="+ item: attribute" style="text;strokeColor=none;fillColor=none;align=left;verticalAlign=top;spacingLeft=4;spacingRight=4;overflow=hidden;rotatable=0;points=[[0,0.5],[1,0.5]];portConstraint=eastwest;" vertex="1" parent="-IxNRpvLPGeOnTa2XRwh-1">
                    <mxGeometry y="52" width="160" height="26" as="geometry"/>
                </mxCell>
                <mxCell id="-IxNRpvLPGeOnTa2XRwh-3" value="" style="line;strokeWidth=1;fillColor=none;align=left;verticalAlign=middle;spacingTop=-1;spacingLeft=3;spacingRight=3;rotatable=0;labelPosition=right;points=[];portConstraint=eastwest;strokeColor=inherit;" vertex="1" parent="-IxNRpvLPGeOnTa2XRwh-1">
                    <mxGeometry y="78" width="160" height="8" as="geometry"/>
                </mxCell>
                <mxCell id="-IxNRpvLPGeOnTa2XRwh-4" value="+ method(type): type" style="text;strokeColor=none;fillColor=none;align=left;verticalAlign=top;spacingLeft=4;spacingRight=4;overflow=hidden;rotatable=0;points=[[0,0.5],[1,0.5]];portConstraint=eastwest;" vertex="1" parent="-IxNRpvLPGeOnTa2XRwh-1">
                    <mxGeometry y="86" width="160" height="26" as="geometry"/>
                </mxCell>
                <mxCell id="47bcrhxyphqd8BRHlcOZ-1" value="L.marker" style="swimlane;fontStyle=1;align=center;verticalAlign=top;childLayout=stackLayout;horizontal=1;startSize=26;horizontalStack=0;resizeParent=1;resizeParentMax=0;resizeLast=0;collapsible=1;marginBottom=0;" vertex="1" parent="1">
                    <mxGeometry x="-46" y="-159" width="160" height="164" as="geometry"/>
                </mxCell>
                <mxCell id="47bcrhxyphqd8BRHlcOZ-2" value="+ LatLng: LatLng" style="text;strokeColor=none;fillColor=none;align=left;verticalAlign=top;spacingLeft=4;spacingRight=4;overflow=hidden;rotatable=0;points=[[0,0.5],[1,0.5]];portConstraint=eastwest;" vertex="1" parent="47bcrhxyphqd8BRHlcOZ-1">
                    <mxGeometry y="26" width="160" height="26" as="geometry"/>
                </mxCell>
                <mxCell id="47bcrhxyphqd8BRHlcOZ-5" value="+ icon: Icon" style="text;strokeColor=none;fillColor=none;align=left;verticalAlign=top;spacingLeft=4;spacingRight=4;overflow=hidden;rotatable=0;points=[[0,0.5],[1,0.5]];portConstraint=eastwest;" vertex="1" parent="47bcrhxyphqd8BRHlcOZ-1">
                    <mxGeometry y="52" width="160" height="26" as="geometry"/>
                </mxCell>
                <mxCell id="47bcrhxyphqd8BRHlcOZ-22" value="+ ..." style="text;strokeColor=none;fillColor=none;align=left;verticalAlign=top;spacingLeft=4;spacingRight=4;overflow=hidden;rotatable=0;points=[[0,0.5],[1,0.5]];portConstraint=eastwest;" vertex="1" parent="47bcrhxyphqd8BRHlcOZ-1">
                    <mxGeometry y="78" width="160" height="26" as="geometry"/>
                </mxCell>
                <mxCell id="47bcrhxyphqd8BRHlcOZ-3" value="" style="line;strokeWidth=1;fillColor=none;align=left;verticalAlign=middle;spacingTop=-1;spacingLeft=3;spacingRight=3;rotatable=0;labelPosition=right;points=[];portConstraint=eastwest;strokeColor=inherit;" vertex="1" parent="47bcrhxyphqd8BRHlcOZ-1">
                    <mxGeometry y="104" width="160" height="8" as="geometry"/>
                </mxCell>
                <mxCell id="47bcrhxyphqd8BRHlcOZ-4" value="+ getLatLng(): LatLng" style="text;strokeColor=none;fillColor=none;align=left;verticalAlign=top;spacingLeft=4;spacingRight=4;overflow=hidden;rotatable=0;points=[[0,0.5],[1,0.5]];portConstraint=eastwest;" vertex="1" parent="47bcrhxyphqd8BRHlcOZ-1">
                    <mxGeometry y="112" width="160" height="26" as="geometry"/>
                </mxCell>
                <mxCell id="47bcrhxyphqd8BRHlcOZ-23" value="+ ..." style="text;strokeColor=none;fillColor=none;align=left;verticalAlign=top;spacingLeft=4;spacingRight=4;overflow=hidden;rotatable=0;points=[[0,0.5],[1,0.5]];portConstraint=eastwest;" vertex="1" parent="47bcrhxyphqd8BRHlcOZ-1">
                    <mxGeometry y="138" width="160" height="26" as="geometry"/>
                </mxCell>
                <mxCell id="47bcrhxyphqd8BRHlcOZ-6" value="L.icon" style="swimlane;fontStyle=1;align=center;verticalAlign=top;childLayout=stackLayout;horizontal=1;startSize=26;horizontalStack=0;resizeParent=1;resizeParentMax=0;resizeLast=0;collapsible=1;marginBottom=0;" vertex="1" parent="1">
                    <mxGeometry x="208" y="-176" width="160" height="164" as="geometry"/>
                </mxCell>
                <mxCell id="47bcrhxyphqd8BRHlcOZ-7" value="+ iconUrl: String" style="text;strokeColor=none;fillColor=none;align=left;verticalAlign=top;spacingLeft=4;spacingRight=4;overflow=hidden;rotatable=0;points=[[0,0.5],[1,0.5]];portConstraint=eastwest;" vertex="1" parent="47bcrhxyphqd8BRHlcOZ-6">
                    <mxGeometry y="26" width="160" height="26" as="geometry"/>
                </mxCell>
                <mxCell id="47bcrhxyphqd8BRHlcOZ-10" value="+ iconSize: Point" style="text;strokeColor=none;fillColor=none;align=left;verticalAlign=top;spacingLeft=4;spacingRight=4;overflow=hidden;rotatable=0;points=[[0,0.5],[1,0.5]];portConstraint=eastwest;" vertex="1" parent="47bcrhxyphqd8BRHlcOZ-6">
                    <mxGeometry y="52" width="160" height="26" as="geometry"/>
                </mxCell>
                <mxCell id="47bcrhxyphqd8BRHlcOZ-11" value="+ iconAnchor: Point" style="text;strokeColor=none;fillColor=none;align=left;verticalAlign=top;spacingLeft=4;spacingRight=4;overflow=hidden;rotatable=0;points=[[0,0.5],[1,0.5]];portConstraint=eastwest;" vertex="1" parent="47bcrhxyphqd8BRHlcOZ-6">
                    <mxGeometry y="78" width="160" height="26" as="geometry"/>
                </mxCell>
                <mxCell id="47bcrhxyphqd8BRHlcOZ-20" value="+ ..." style="text;strokeColor=none;fillColor=none;align=left;verticalAlign=top;spacingLeft=4;spacingRight=4;overflow=hidden;rotatable=0;points=[[0,0.5],[1,0.5]];portConstraint=eastwest;" vertex="1" parent="47bcrhxyphqd8BRHlcOZ-6">
                    <mxGeometry y="104" width="160" height="26" as="geometry"/>
                </mxCell>
                <mxCell id="47bcrhxyphqd8BRHlcOZ-8" value="" style="line;strokeWidth=1;fillColor=none;align=left;verticalAlign=middle;spacingTop=-1;spacingLeft=3;spacingRight=3;rotatable=0;labelPosition=right;points=[];portConstraint=eastwest;strokeColor=inherit;" vertex="1" parent="47bcrhxyphqd8BRHlcOZ-6">
                    <mxGeometry y="130" width="160" height="8" as="geometry"/>
                </mxCell>
                <mxCell id="47bcrhxyphqd8BRHlcOZ-9" value="+ ..." style="text;strokeColor=none;fillColor=none;align=left;verticalAlign=top;spacingLeft=4;spacingRight=4;overflow=hidden;rotatable=0;points=[[0,0.5],[1,0.5]];portConstraint=eastwest;" vertex="1" parent="47bcrhxyphqd8BRHlcOZ-6">
                    <mxGeometry y="138" width="160" height="26" as="geometry"/>
                </mxCell>
                <mxCell id="47bcrhxyphqd8BRHlcOZ-12" value="L.point" style="swimlane;fontStyle=1;align=center;verticalAlign=top;childLayout=stackLayout;horizontal=1;startSize=26;horizontalStack=0;resizeParent=1;resizeParentMax=0;resizeLast=0;collapsible=1;marginBottom=0;" vertex="1" parent="1">
                    <mxGeometry x="503" y="-145" width="160" height="112" as="geometry"/>
                </mxCell>
                <mxCell id="47bcrhxyphqd8BRHlcOZ-13" value="+ x: Number" style="text;strokeColor=none;fillColor=none;align=left;verticalAlign=top;spacingLeft=4;spacingRight=4;overflow=hidden;rotatable=0;points=[[0,0.5],[1,0.5]];portConstraint=eastwest;" vertex="1" parent="47bcrhxyphqd8BRHlcOZ-12">
                    <mxGeometry y="26" width="160" height="26" as="geometry"/>
                </mxCell>
                <mxCell id="47bcrhxyphqd8BRHlcOZ-16" value="+ y: Number" style="text;strokeColor=none;fillColor=none;align=left;verticalAlign=top;spacingLeft=4;spacingRight=4;overflow=hidden;rotatable=0;points=[[0,0.5],[1,0.5]];portConstraint=eastwest;" vertex="1" parent="47bcrhxyphqd8BRHlcOZ-12">
                    <mxGeometry y="52" width="160" height="26" as="geometry"/>
                </mxCell>
                <mxCell id="47bcrhxyphqd8BRHlcOZ-14" value="" style="line;strokeWidth=1;fillColor=none;align=left;verticalAlign=middle;spacingTop=-1;spacingLeft=3;spacingRight=3;rotatable=0;labelPosition=right;points=[];portConstraint=eastwest;strokeColor=inherit;" vertex="1" parent="47bcrhxyphqd8BRHlcOZ-12">
                    <mxGeometry y="78" width="160" height="8" as="geometry"/>
                </mxCell>
                <mxCell id="47bcrhxyphqd8BRHlcOZ-15" value="+ ..." style="text;strokeColor=none;fillColor=none;align=left;verticalAlign=top;spacingLeft=4;spacingRight=4;overflow=hidden;rotatable=0;points=[[0,0.5],[1,0.5]];portConstraint=eastwest;" vertex="1" parent="47bcrhxyphqd8BRHlcOZ-12">
                    <mxGeometry y="86" width="160" height="26" as="geometry"/>
                </mxCell>
                <mxCell id="47bcrhxyphqd8BRHlcOZ-24" value="Extends" style="endArrow=block;endSize=16;endFill=0;html=1;exitX=1;exitY=0.5;exitDx=0;exitDy=0;" edge="1" parent="1" source="-IxNRpvLPGeOnTa2XRwh-1" target="47bcrhxyphqd8BRHlcOZ-1">
                    <mxGeometry width="160" relative="1" as="geometry">
                        <mxPoint x="-131" y="106" as="sourcePoint"/>
                        <mxPoint x="29" y="106" as="targetPoint"/>
                    </mxGeometry>
                </mxCell>
                <mxCell id="47bcrhxyphqd8BRHlcOZ-25" value="Use" style="endArrow=open;endSize=12;dashed=1;html=1;exitX=1;exitY=0.5;exitDx=0;exitDy=0;entryX=0;entryY=0.5;entryDx=0;entryDy=0;" edge="1" parent="1" source="47bcrhxyphqd8BRHlcOZ-5" target="47bcrhxyphqd8BRHlcOZ-6">
                    <mxGeometry width="160" relative="1" as="geometry">
                        <mxPoint x="303" y="-99" as="sourcePoint"/>
                        <mxPoint x="463" y="-99" as="targetPoint"/>
                    </mxGeometry>
                </mxCell>
                <mxCell id="47bcrhxyphqd8BRHlcOZ-26" value="Use" style="endArrow=open;endSize=12;dashed=1;html=1;entryX=0;entryY=0.5;entryDx=0;entryDy=0;exitX=1;exitY=0.5;exitDx=0;exitDy=0;" edge="1" parent="1" source="47bcrhxyphqd8BRHlcOZ-11" target="47bcrhxyphqd8BRHlcOZ-12">
                    <mxGeometry width="160" relative="1" as="geometry">
                        <mxPoint x="393" y="-93" as="sourcePoint"/>
                        <mxPoint x="564" y="-3" as="targetPoint"/>
                    </mxGeometry>
                </mxCell>
                <mxCell id="47bcrhxyphqd8BRHlcOZ-27" value="L.latLng" style="swimlane;fontStyle=1;align=center;verticalAlign=top;childLayout=stackLayout;horizontal=1;startSize=26;horizontalStack=0;resizeParent=1;resizeParentMax=0;resizeLast=0;collapsible=1;marginBottom=0;" vertex="1" parent="1">
                    <mxGeometry x="186" y="-393" width="185" height="164" as="geometry"/>
                </mxCell>
                <mxCell id="47bcrhxyphqd8BRHlcOZ-28" value="+ lat: Number" style="text;strokeColor=none;fillColor=none;align=left;verticalAlign=top;spacingLeft=4;spacingRight=4;overflow=hidden;rotatable=0;points=[[0,0.5],[1,0.5]];portConstraint=eastwest;" vertex="1" parent="47bcrhxyphqd8BRHlcOZ-27">
                    <mxGeometry y="26" width="185" height="26" as="geometry"/>
                </mxCell>
                <mxCell id="47bcrhxyphqd8BRHlcOZ-32" value="+ lng: Number" style="text;strokeColor=none;fillColor=none;align=left;verticalAlign=top;spacingLeft=4;spacingRight=4;overflow=hidden;rotatable=0;points=[[0,0.5],[1,0.5]];portConstraint=eastwest;" vertex="1" parent="47bcrhxyphqd8BRHlcOZ-27">
                    <mxGeometry y="52" width="185" height="26" as="geometry"/>
                </mxCell>
                <mxCell id="47bcrhxyphqd8BRHlcOZ-33" value="+ ..." style="text;strokeColor=none;fillColor=none;align=left;verticalAlign=top;spacingLeft=4;spacingRight=4;overflow=hidden;rotatable=0;points=[[0,0.5],[1,0.5]];portConstraint=eastwest;" vertex="1" parent="47bcrhxyphqd8BRHlcOZ-27">
                    <mxGeometry y="78" width="185" height="26" as="geometry"/>
                </mxCell>
                <mxCell id="47bcrhxyphqd8BRHlcOZ-29" value="" style="line;strokeWidth=1;fillColor=none;align=left;verticalAlign=middle;spacingTop=-1;spacingLeft=3;spacingRight=3;rotatable=0;labelPosition=right;points=[];portConstraint=eastwest;strokeColor=inherit;" vertex="1" parent="47bcrhxyphqd8BRHlcOZ-27">
                    <mxGeometry y="104" width="185" height="8" as="geometry"/>
                </mxCell>
                <mxCell id="47bcrhxyphqd8BRHlcOZ-30" value="+ distanceTo(LatLng): Number" style="text;strokeColor=none;fillColor=none;align=left;verticalAlign=top;spacingLeft=4;spacingRight=4;overflow=hidden;rotatable=0;points=[[0,0.5],[1,0.5]];portConstraint=eastwest;" vertex="1" parent="47bcrhxyphqd8BRHlcOZ-27">
                    <mxGeometry y="112" width="185" height="26" as="geometry"/>
                </mxCell>
                <mxCell id="47bcrhxyphqd8BRHlcOZ-31" value="+ ..." style="text;strokeColor=none;fillColor=none;align=left;verticalAlign=top;spacingLeft=4;spacingRight=4;overflow=hidden;rotatable=0;points=[[0,0.5],[1,0.5]];portConstraint=eastwest;" vertex="1" parent="47bcrhxyphqd8BRHlcOZ-27">
                    <mxGeometry y="138" width="185" height="26" as="geometry"/>
                </mxCell>
                <mxCell id="47bcrhxyphqd8BRHlcOZ-34" value="Use" style="endArrow=open;endSize=12;dashed=1;html=1;" edge="1" parent="1" source="47bcrhxyphqd8BRHlcOZ-1" target="47bcrhxyphqd8BRHlcOZ-27">
                    <mxGeometry width="160" relative="1" as="geometry">
                        <mxPoint x="5" y="-261" as="sourcePoint"/>
                        <mxPoint x="165" y="-261" as="targetPoint"/>
                    </mxGeometry>
                </mxCell>
                <mxCell id="47bcrhxyphqd8BRHlcOZ-36" value="L.map" style="swimlane;fontStyle=1;align=center;verticalAlign=top;childLayout=stackLayout;horizontal=1;startSize=26;horizontalStack=0;resizeParent=1;resizeParentMax=0;resizeLast=0;collapsible=1;marginBottom=0;" vertex="1" parent="1">
                    <mxGeometry x="-64" y="-445" width="240" height="216" as="geometry"/>
                </mxCell>
                <mxCell id="47bcrhxyphqd8BRHlcOZ-46" value="+ id: String" style="text;strokeColor=none;fillColor=none;align=left;verticalAlign=top;spacingLeft=4;spacingRight=4;overflow=hidden;rotatable=0;points=[[0,0.5],[1,0.5]];portConstraint=eastwest;" vertex="1" parent="47bcrhxyphqd8BRHlcOZ-36">
                    <mxGeometry y="26" width="240" height="26" as="geometry"/>
                </mxCell>
                <mxCell id="47bcrhxyphqd8BRHlcOZ-37" value="+ zoomControl: boolean" style="text;strokeColor=none;fillColor=none;align=left;verticalAlign=top;spacingLeft=4;spacingRight=4;overflow=hidden;rotatable=0;points=[[0,0.5],[1,0.5]];portConstraint=eastwest;" vertex="1" parent="47bcrhxyphqd8BRHlcOZ-36">
                    <mxGeometry y="52" width="240" height="26" as="geometry"/>
                </mxCell>
                <mxCell id="47bcrhxyphqd8BRHlcOZ-40" value="+ crs: CRS" style="text;strokeColor=none;fillColor=none;align=left;verticalAlign=top;spacingLeft=4;spacingRight=4;overflow=hidden;rotatable=0;points=[[0,0.5],[1,0.5]];portConstraint=eastwest;" vertex="1" parent="47bcrhxyphqd8BRHlcOZ-36">
                    <mxGeometry y="78" width="240" height="26" as="geometry"/>
                </mxCell>
                <mxCell id="47bcrhxyphqd8BRHlcOZ-41" value="+ minZoom: Number" style="text;strokeColor=none;fillColor=none;align=left;verticalAlign=top;spacingLeft=4;spacingRight=4;overflow=hidden;rotatable=0;points=[[0,0.5],[1,0.5]];portConstraint=eastwest;" vertex="1" parent="47bcrhxyphqd8BRHlcOZ-36">
                    <mxGeometry y="104" width="240" height="26" as="geometry"/>
                </mxCell>
                <mxCell id="47bcrhxyphqd8BRHlcOZ-47" value="+ ..." style="text;strokeColor=none;fillColor=none;align=left;verticalAlign=top;spacingLeft=4;spacingRight=4;overflow=hidden;rotatable=0;points=[[0,0.5],[1,0.5]];portConstraint=eastwest;" vertex="1" parent="47bcrhxyphqd8BRHlcOZ-36">
                    <mxGeometry y="130" width="240" height="26" as="geometry"/>
                </mxCell>
                <mxCell id="47bcrhxyphqd8BRHlcOZ-38" value="" style="line;strokeWidth=1;fillColor=none;align=left;verticalAlign=middle;spacingTop=-1;spacingLeft=3;spacingRight=3;rotatable=0;labelPosition=right;points=[];portConstraint=eastwest;strokeColor=inherit;" vertex="1" parent="47bcrhxyphqd8BRHlcOZ-36">
                    <mxGeometry y="156" width="240" height="8" as="geometry"/>
                </mxCell>
                <mxCell id="47bcrhxyphqd8BRHlcOZ-39" value="+ setView(center: LatLng, zoom: Number)" style="text;strokeColor=none;fillColor=none;align=left;verticalAlign=top;spacingLeft=4;spacingRight=4;overflow=hidden;rotatable=0;points=[[0,0.5],[1,0.5]];portConstraint=eastwest;" vertex="1" parent="47bcrhxyphqd8BRHlcOZ-36">
                    <mxGeometry y="164" width="240" height="26" as="geometry"/>
                </mxCell>
                <mxCell id="47bcrhxyphqd8BRHlcOZ-48" value="+ ..." style="text;strokeColor=none;fillColor=none;align=left;verticalAlign=top;spacingLeft=4;spacingRight=4;overflow=hidden;rotatable=0;points=[[0,0.5],[1,0.5]];portConstraint=eastwest;" vertex="1" parent="47bcrhxyphqd8BRHlcOZ-36">
                    <mxGeometry y="190" width="240" height="26" as="geometry"/>
                </mxCell>
                <mxCell id="47bcrhxyphqd8BRHlcOZ-42" value="L.imageOverlay" style="swimlane;fontStyle=1;align=center;verticalAlign=top;childLayout=stackLayout;horizontal=1;startSize=26;horizontalStack=0;resizeParent=1;resizeParentMax=0;resizeLast=0;collapsible=1;marginBottom=0;" vertex="1" parent="1">
                    <mxGeometry x="477" y="-346" width="160" height="112" as="geometry"/>
                </mxCell>
                <mxCell id="47bcrhxyphqd8BRHlcOZ-43" value="+ imageUrl: String" style="text;strokeColor=none;fillColor=none;align=left;verticalAlign=top;spacingLeft=4;spacingRight=4;overflow=hidden;rotatable=0;points=[[0,0.5],[1,0.5]];portConstraint=eastwest;" vertex="1" parent="47bcrhxyphqd8BRHlcOZ-42">
                    <mxGeometry y="26" width="160" height="26" as="geometry"/>
                </mxCell>
                <mxCell id="47bcrhxyphqd8BRHlcOZ-49" value="+ bounds: LatLngBounds" style="text;strokeColor=none;fillColor=none;align=left;verticalAlign=top;spacingLeft=4;spacingRight=4;overflow=hidden;rotatable=0;points=[[0,0.5],[1,0.5]];portConstraint=eastwest;" vertex="1" parent="47bcrhxyphqd8BRHlcOZ-42">
                    <mxGeometry y="52" width="160" height="26" as="geometry"/>
                </mxCell>
                <mxCell id="47bcrhxyphqd8BRHlcOZ-44" value="" style="line;strokeWidth=1;fillColor=none;align=left;verticalAlign=middle;spacingTop=-1;spacingLeft=3;spacingRight=3;rotatable=0;labelPosition=right;points=[];portConstraint=eastwest;strokeColor=inherit;" vertex="1" parent="47bcrhxyphqd8BRHlcOZ-42">
                    <mxGeometry y="78" width="160" height="8" as="geometry"/>
                </mxCell>
                <mxCell id="47bcrhxyphqd8BRHlcOZ-45" value="+ addTo(map)" style="text;strokeColor=none;fillColor=none;align=left;verticalAlign=top;spacingLeft=4;spacingRight=4;overflow=hidden;rotatable=0;points=[[0,0.5],[1,0.5]];portConstraint=eastwest;" vertex="1" parent="47bcrhxyphqd8BRHlcOZ-42">
                    <mxGeometry y="86" width="160" height="26" as="geometry"/>
                </mxCell>
                <mxCell id="47bcrhxyphqd8BRHlcOZ-50" value="L.latLngBounds" style="swimlane;fontStyle=1;align=center;verticalAlign=top;childLayout=stackLayout;horizontal=1;startSize=26;horizontalStack=0;resizeParent=1;resizeParentMax=0;resizeLast=0;collapsible=1;marginBottom=0;" vertex="1" parent="1">
                    <mxGeometry x="730" y="-434" width="160" height="112" as="geometry"/>
                </mxCell>
                <mxCell id="47bcrhxyphqd8BRHlcOZ-51" value="+ corner1: LatLng" style="text;strokeColor=none;fillColor=none;align=left;verticalAlign=top;spacingLeft=4;spacingRight=4;overflow=hidden;rotatable=0;points=[[0,0.5],[1,0.5]];portConstraint=eastwest;" vertex="1" parent="47bcrhxyphqd8BRHlcOZ-50">
                    <mxGeometry y="26" width="160" height="26" as="geometry"/>
                </mxCell>
                <mxCell id="47bcrhxyphqd8BRHlcOZ-54" value="+ corner2: LatLng" style="text;strokeColor=none;fillColor=none;align=left;verticalAlign=top;spacingLeft=4;spacingRight=4;overflow=hidden;rotatable=0;points=[[0,0.5],[1,0.5]];portConstraint=eastwest;" vertex="1" parent="47bcrhxyphqd8BRHlcOZ-50">
                    <mxGeometry y="52" width="160" height="26" as="geometry"/>
                </mxCell>
                <mxCell id="47bcrhxyphqd8BRHlcOZ-52" value="" style="line;strokeWidth=1;fillColor=none;align=left;verticalAlign=middle;spacingTop=-1;spacingLeft=3;spacingRight=3;rotatable=0;labelPosition=right;points=[];portConstraint=eastwest;strokeColor=inherit;" vertex="1" parent="47bcrhxyphqd8BRHlcOZ-50">
                    <mxGeometry y="78" width="160" height="8" as="geometry"/>
                </mxCell>
                <mxCell id="47bcrhxyphqd8BRHlcOZ-53" value="+ ..." style="text;strokeColor=none;fillColor=none;align=left;verticalAlign=top;spacingLeft=4;spacingRight=4;overflow=hidden;rotatable=0;points=[[0,0.5],[1,0.5]];portConstraint=eastwest;" vertex="1" parent="47bcrhxyphqd8BRHlcOZ-50">
                    <mxGeometry y="86" width="160" height="26" as="geometry"/>
                </mxCell>
                <mxCell id="47bcrhxyphqd8BRHlcOZ-55" value="Use" style="endArrow=open;endSize=12;dashed=1;html=1;" edge="1" parent="1" source="47bcrhxyphqd8BRHlcOZ-42" target="47bcrhxyphqd8BRHlcOZ-50">
                    <mxGeometry width="160" relative="1" as="geometry">
                        <mxPoint x="742" y="-171" as="sourcePoint"/>
                        <mxPoint x="902" y="-171" as="targetPoint"/>
                    </mxGeometry>
                </mxCell>
                <mxCell id="47bcrhxyphqd8BRHlcOZ-57" value="Use" style="endArrow=open;endSize=12;dashed=1;html=1;entryX=1;entryY=0;entryDx=0;entryDy=0;" edge="1" parent="1" source="47bcrhxyphqd8BRHlcOZ-50" target="47bcrhxyphqd8BRHlcOZ-27">
                    <mxGeometry width="160" relative="1" as="geometry">
                        <mxPoint x="499" y="-436" as="sourcePoint"/>
                        <mxPoint x="659" y="-436" as="targetPoint"/>
                    </mxGeometry>
                </mxCell>
                <mxCell id="47bcrhxyphqd8BRHlcOZ-58" value="L.CRS" style="swimlane;fontStyle=1;align=center;verticalAlign=top;childLayout=stackLayout;horizontal=1;startSize=26;horizontalStack=0;resizeParent=1;resizeParentMax=0;resizeLast=0;collapsible=1;marginBottom=0;" vertex="1" parent="1">
                    <mxGeometry x="-60" y="-540" width="160" height="86" as="geometry"/>
                </mxCell>
                <mxCell id="47bcrhxyphqd8BRHlcOZ-59" value="+ ..." style="text;strokeColor=none;fillColor=none;align=left;verticalAlign=top;spacingLeft=4;spacingRight=4;overflow=hidden;rotatable=0;points=[[0,0.5],[1,0.5]];portConstraint=eastwest;" vertex="1" parent="47bcrhxyphqd8BRHlcOZ-58">
                    <mxGeometry y="26" width="160" height="26" as="geometry"/>
                </mxCell>
                <mxCell id="47bcrhxyphqd8BRHlcOZ-60" value="" style="line;strokeWidth=1;fillColor=none;align=left;verticalAlign=middle;spacingTop=-1;spacingLeft=3;spacingRight=3;rotatable=0;labelPosition=right;points=[];portConstraint=eastwest;strokeColor=inherit;" vertex="1" parent="47bcrhxyphqd8BRHlcOZ-58">
                    <mxGeometry y="52" width="160" height="8" as="geometry"/>
                </mxCell>
                <mxCell id="47bcrhxyphqd8BRHlcOZ-61" value="+ ..." style="text;strokeColor=none;fillColor=none;align=left;verticalAlign=top;spacingLeft=4;spacingRight=4;overflow=hidden;rotatable=0;points=[[0,0.5],[1,0.5]];portConstraint=eastwest;" vertex="1" parent="47bcrhxyphqd8BRHlcOZ-58">
                    <mxGeometry y="60" width="160" height="26" as="geometry"/>
                </mxCell>
            </root>
        </mxGraphModel>
    </diagram>
</mxfile>